<svg width="1440" height="357" viewBox="0 0 1440 357" fill="none" xmlns="http://www.w3.org/2000/svg">
<g filter="url(#filter0_di_7972_95947)">
<path d="M1292.72 39.3691C1328.8 39.3691 1361.72 51.8193 1386.68 72.2998C1390.45 72.0963 1394.25 71.9922 1398.1 71.9922C1476.89 71.9922 1540.76 115.536 1540.76 169.25C1540.76 222.964 1476.89 266.508 1398.1 266.508C1394.13 266.508 1390.2 266.395 1386.31 266.179C1361.4 286.482 1328.63 298.811 1292.72 298.811C1261.36 298.811 1232.39 289.406 1208.96 273.5C1193.58 276.782 1177.23 278.551 1160.28 278.551C1120.19 278.551 1083.46 268.66 1054.96 252.236C1030.56 273.884 993.201 287.731 951.325 287.731C909.033 287.731 871.348 273.606 846.967 251.587C829.631 277.003 804.328 293.021 776.148 293.021C758.212 293.021 741.441 286.531 727.147 275.259C709.189 282.654 688.906 286.82 667.435 286.82C642.015 286.82 618.26 280.982 598.058 270.856C591.683 269.712 585.492 268.238 579.52 266.462C547.314 297.517 498.438 317.33 443.714 317.33C400.891 317.33 361.649 305.196 331.174 285.038C309.732 304.229 282.394 315.732 252.617 315.732C217.848 315.732 186.404 300.05 163.79 274.757C137.704 284.532 107.302 290.141 74.8428 290.141C-22.1387 290.141 -100.758 240.09 -100.758 178.349C-100.758 116.608 -22.1385 66.5566 74.8428 66.5566C107.3 66.5567 137.701 72.1641 163.786 81.9385C186.401 56.6429 217.846 40.959 252.617 40.959C282.396 40.9591 309.736 52.4632 331.179 71.6562C361.653 51.5009 400.893 39.3691 443.714 39.3691C498.49 39.3691 547.407 59.2201 579.611 90.3262C584.399 88.9051 589.328 87.6779 594.379 86.6592C615.351 75.3604 640.455 68.7871 667.435 68.7871C684.215 68.7871 700.27 71.3312 715.057 75.9727C731.542 57.8339 752.863 46.8975 776.148 46.8975C792.268 46.8975 807.446 52.14 820.73 61.3838C850.646 52.3161 887.394 46.9717 927.117 46.9717C982.42 46.9717 1031.96 57.3305 1065.32 73.6748C1092.12 60.5709 1124.89 52.8672 1160.28 52.8672C1180.13 52.8672 1199.16 55.2923 1216.77 59.7354C1238.7 46.8432 1264.76 39.3692 1292.72 39.3691Z" fill="white"/>
</g>
<defs>
<filter id="filter0_di_7972_95947" x="-139.758" y="0.369141" width="1719.52" height="355.961" filterUnits="userSpaceOnUse" color-interpolation-filters="sRGB">
<feFlood flood-opacity="0" result="BackgroundImageFix"/>
<feColorMatrix in="SourceAlpha" type="matrix" values="0 0 0 0 0 0 0 0 0 0 0 0 0 0 0 0 0 0 127 0" result="hardAlpha"/>
<feOffset/>
<feGaussianBlur stdDeviation="19.5"/>
<feComposite in2="hardAlpha" operator="out"/>
<feColorMatrix type="matrix" values="0 0 0 0 0.533654 0 0 0 0 0.813462 0 0 0 0 1 0 0 0 0.2 0"/>
<feBlend mode="normal" in2="BackgroundImageFix" result="effect1_dropShadow_7972_95947"/>
<feBlend mode="normal" in="SourceGraphic" in2="effect1_dropShadow_7972_95947" result="shape"/>
<feColorMatrix in="SourceAlpha" type="matrix" values="0 0 0 0 0 0 0 0 0 0 0 0 0 0 0 0 0 0 127 0" result="hardAlpha"/>
<feOffset/>
<feGaussianBlur stdDeviation="11"/>
<feComposite in2="hardAlpha" operator="arithmetic" k2="-1" k3="1"/>
<feColorMatrix type="matrix" values="0 0 0 0 0.629808 0 0 0 0 0.888942 0 0 0 0 1 0 0 0 0.5 0"/>
<feBlend mode="normal" in2="shape" result="effect2_innerShadow_7972_95947"/>
</filter>
</defs>
</svg>
