<svg width="1440" height="429" viewBox="0 0 1440 429" fill="none" xmlns="http://www.w3.org/2000/svg">
<g filter="url(#filter0_di_6513_18452)">
<mask id="path-1-inside-1_6513_18452" fill="white">
<path d="M1292.72 39.4531C1328.81 39.4531 1361.73 55.1117 1386.68 80.8701C1390.45 80.6143 1394.26 80.4824 1398.1 80.4824C1476.89 80.4824 1540.76 135.25 1540.76 202.809C1540.76 270.368 1476.89 325.136 1398.1 325.136C1394.13 325.136 1390.2 324.994 1386.32 324.722C1361.41 350.259 1328.63 365.766 1292.72 365.766C1261.36 365.766 1232.39 353.936 1208.96 333.929C1193.58 338.057 1177.23 340.281 1160.28 340.281C1120.19 340.281 1083.46 327.84 1054.96 307.181C1030.56 334.41 993.199 351.828 951.321 351.828C909.032 351.828 871.349 334.066 846.968 306.374C829.632 338.338 804.331 358.482 776.152 358.482C758.215 358.482 741.443 350.319 727.149 336.141C709.19 345.443 688.907 350.683 667.435 350.683C642.013 350.683 618.257 343.34 598.054 330.604C591.682 329.164 585.494 327.31 579.524 325.077C547.319 364.138 498.443 389.059 443.718 389.059C400.893 389.059 361.65 373.797 331.174 348.441C309.732 372.579 282.395 387.047 252.617 387.047C217.848 387.047 186.405 367.324 163.791 335.512C137.705 347.807 107.303 354.861 74.8428 354.861C-22.1387 354.861 -100.758 291.91 -100.758 214.255C-100.758 136.6 -22.1387 73.6484 74.8428 73.6484C107.3 73.6485 137.7 80.7006 163.785 92.9941C186.4 61.1776 217.846 41.4512 252.617 41.4512C282.398 41.4513 309.738 55.9216 331.181 80.0635C361.656 54.712 400.896 39.4531 443.718 39.4531C498.493 39.4531 547.409 64.4201 579.613 103.543C584.4 101.756 589.327 100.213 594.376 98.9316C615.348 84.7195 640.454 76.4512 667.435 76.4512C684.216 76.4512 700.272 79.6517 715.06 85.4902C731.545 62.6756 752.867 48.9199 776.152 48.9199C792.272 48.92 807.448 55.5146 820.732 67.1406C850.647 55.7361 887.395 49.0137 927.117 49.0137C982.422 49.0137 1031.96 62.0427 1065.32 82.6006C1092.12 66.1185 1124.89 56.4277 1160.28 56.4277C1180.14 56.4277 1199.17 59.4788 1216.78 65.0674C1238.71 48.8531 1264.76 39.4531 1292.72 39.4531Z"/>
</mask>
<path d="M1292.72 39.4531C1328.81 39.4531 1361.73 55.1117 1386.68 80.8701C1390.45 80.6143 1394.26 80.4824 1398.1 80.4824C1476.89 80.4824 1540.76 135.25 1540.76 202.809C1540.76 270.368 1476.89 325.136 1398.1 325.136C1394.13 325.136 1390.2 324.994 1386.32 324.722C1361.41 350.259 1328.63 365.766 1292.72 365.766C1261.36 365.766 1232.39 353.936 1208.96 333.929C1193.58 338.057 1177.23 340.281 1160.28 340.281C1120.19 340.281 1083.46 327.84 1054.96 307.181C1030.56 334.41 993.199 351.828 951.321 351.828C909.032 351.828 871.349 334.066 846.968 306.374C829.632 338.338 804.331 358.482 776.152 358.482C758.215 358.482 741.443 350.319 727.149 336.141C709.19 345.443 688.907 350.683 667.435 350.683C642.013 350.683 618.257 343.34 598.054 330.604C591.682 329.164 585.494 327.31 579.524 325.077C547.319 364.138 498.443 389.059 443.718 389.059C400.893 389.059 361.65 373.797 331.174 348.441C309.732 372.579 282.395 387.047 252.617 387.047C217.848 387.047 186.405 367.324 163.791 335.512C137.705 347.807 107.303 354.861 74.8428 354.861C-22.1387 354.861 -100.758 291.91 -100.758 214.255C-100.758 136.6 -22.1387 73.6484 74.8428 73.6484C107.3 73.6485 137.7 80.7006 163.785 92.9941C186.4 61.1776 217.846 41.4512 252.617 41.4512C282.398 41.4513 309.738 55.9216 331.181 80.0635C361.656 54.712 400.896 39.4531 443.718 39.4531C498.493 39.4531 547.409 64.4201 579.613 103.543C584.4 101.756 589.327 100.213 594.376 98.9316C615.348 84.7195 640.454 76.4512 667.435 76.4512C684.216 76.4512 700.272 79.6517 715.06 85.4902C731.545 62.6756 752.867 48.9199 776.152 48.9199C792.272 48.92 807.448 55.5146 820.732 67.1406C850.647 55.7361 887.395 49.0137 927.117 49.0137C982.422 49.0137 1031.96 62.0427 1065.32 82.6006C1092.12 66.1185 1124.89 56.4277 1160.28 56.4277C1180.14 56.4277 1199.17 59.4788 1216.78 65.0674C1238.71 48.8531 1264.76 39.4531 1292.72 39.4531Z" fill="white"/>
<path d="M1292.72 39.4531V38.4531V39.4531ZM1386.68 80.8701L1385.96 81.5659L1386.28 81.8993L1386.75 81.8678L1386.68 80.8701ZM1540.76 202.809H1541.76H1540.76ZM1386.32 324.722L1386.39 323.724L1385.93 323.692L1385.6 324.023L1386.32 324.722ZM1292.72 365.766V366.766V365.766ZM1208.96 333.929L1209.61 333.168L1209.21 332.826L1208.7 332.963L1208.96 333.929ZM1054.96 307.181L1055.55 306.371L1054.82 305.842L1054.21 306.513L1054.96 307.181ZM951.321 351.828V352.828V351.828ZM846.968 306.374L847.718 305.713L846.772 304.638L846.089 305.897L846.968 306.374ZM776.152 358.482V359.482V358.482ZM727.149 336.141L727.854 335.431L727.336 334.918L726.689 335.253L727.149 336.141ZM667.435 350.683V351.683V350.683ZM598.054 330.604L598.587 329.758L598.442 329.666L598.274 329.628L598.054 330.604ZM579.524 325.077L579.875 324.141L579.207 323.891L578.753 324.441L579.524 325.077ZM443.718 389.059V390.059V389.059ZM331.174 348.441L331.813 347.673L331.069 347.053L330.426 347.777L331.174 348.441ZM252.617 387.047V388.047V387.047ZM163.791 335.512L164.606 334.932L164.121 334.25L163.365 334.607L163.791 335.512ZM74.8428 354.861V355.861V354.861ZM74.8428 73.6484V72.6484V73.6484ZM163.785 92.9941L163.359 93.8987L164.116 94.2554L164.6 93.5735L163.785 92.9941ZM252.617 41.4512V40.4512V41.4512ZM331.181 80.0635L330.433 80.7276L331.076 81.4514L331.82 80.8322L331.181 80.0635ZM443.718 39.4531V38.4531V39.4531ZM579.613 103.543L578.841 104.179L579.295 104.729L579.963 104.48L579.613 103.543ZM594.376 98.9316L594.622 99.9009L594.792 99.8578L594.937 99.7595L594.376 98.9316ZM667.435 76.4512V75.4512V76.4512ZM715.06 85.4902L714.692 86.4204L715.415 86.7057L715.87 86.0759L715.06 85.4902ZM776.152 48.9199V47.9199V48.9199ZM820.732 67.1406L820.074 67.8931L820.527 68.2893L821.089 68.075L820.732 67.1406ZM1065.32 82.6006L1064.79 83.4519L1065.32 83.7749L1065.84 83.4524L1065.32 82.6006ZM1216.78 65.0674L1216.48 66.0206L1216.96 66.1749L1217.37 65.8714L1216.78 65.0674ZM1292.72 39.4531V40.4531C1328.51 40.4531 1361.17 55.9783 1385.96 81.5659L1386.68 80.8701L1387.4 80.1743C1362.28 54.245 1329.11 38.4531 1292.72 38.4531V39.4531ZM1386.68 80.8701L1386.75 81.8678C1390.49 81.6135 1394.28 81.4824 1398.1 81.4824V80.4824V79.4824C1394.23 79.4824 1390.4 79.615 1386.61 79.8724L1386.68 80.8701ZM1398.1 80.4824V81.4824C1476.49 81.4824 1539.76 135.941 1539.76 202.809H1540.76H1541.76C1541.76 134.559 1477.29 79.4824 1398.1 79.4824V80.4824ZM1540.76 202.809H1539.76C1539.76 269.677 1476.49 324.136 1398.1 324.136V325.136V326.136C1477.29 326.136 1541.76 271.059 1541.76 202.809H1540.76ZM1398.1 325.136V324.136C1394.16 324.136 1390.25 323.995 1386.39 323.724L1386.32 324.722L1386.25 325.719C1390.16 325.993 1394.11 326.136 1398.1 326.136V325.136ZM1386.32 324.722L1385.6 324.023C1360.86 349.391 1328.33 364.766 1292.72 364.766V365.766V366.766C1328.93 366.766 1361.96 351.127 1387.03 325.42L1386.32 324.722ZM1292.72 365.766V364.766C1261.62 364.766 1232.88 353.036 1209.61 333.168L1208.96 333.929L1208.31 334.689C1231.9 354.836 1261.1 366.766 1292.72 366.766V365.766ZM1208.96 333.929L1208.7 332.963C1193.41 337.068 1177.14 339.281 1160.28 339.281V340.281V341.281C1177.32 341.281 1193.75 339.045 1209.22 334.895L1208.96 333.929ZM1160.28 340.281V339.281C1120.4 339.281 1083.87 326.904 1055.55 306.371L1054.96 307.181L1054.37 307.99C1083.05 328.776 1119.98 341.281 1160.28 341.281V340.281ZM1054.96 307.181L1054.21 306.513C1030.01 333.525 992.923 350.828 951.321 350.828V351.828V352.828C993.475 352.828 1031.11 335.295 1055.7 307.848L1054.96 307.181ZM951.321 351.828V350.828C909.31 350.828 871.905 333.183 847.718 305.713L846.968 306.374L846.217 307.035C870.794 334.948 908.753 352.828 951.321 352.828V351.828ZM846.968 306.374L846.089 305.897C828.841 337.699 803.812 357.482 776.152 357.482V358.482V359.482C804.849 359.482 830.423 338.977 847.847 306.851L846.968 306.374ZM776.152 358.482V357.482C758.538 357.482 742.007 349.47 727.854 335.431L727.149 336.141L726.445 336.851C740.879 351.168 757.891 359.482 776.152 359.482V358.482ZM727.149 336.141L726.689 335.253C708.868 344.484 688.742 349.683 667.435 349.683V350.683V351.683C689.072 351.683 709.512 346.402 727.609 337.029L727.149 336.141ZM667.435 350.683V349.683C642.209 349.683 618.637 342.397 598.587 329.758L598.054 330.604L597.52 331.449C617.878 344.283 641.817 351.683 667.435 351.683V350.683ZM598.054 330.604L598.274 329.628C591.947 328.199 585.802 326.358 579.875 324.141L579.524 325.077L579.174 326.014C585.186 328.263 591.418 330.129 597.833 331.579L598.054 330.604ZM579.524 325.077L578.753 324.441C546.73 363.28 498.133 388.059 443.718 388.059V389.059V390.059C498.753 390.059 547.908 364.995 580.296 325.713L579.524 325.077ZM443.718 389.059V388.059C401.134 388.059 362.116 372.884 331.813 347.673L331.174 348.441L330.534 349.21C361.184 374.709 400.651 390.059 443.718 390.059V389.059ZM331.174 348.441L330.426 347.777C309.131 371.75 282.05 386.047 252.617 386.047V387.047V388.047C282.739 388.047 310.333 373.408 331.921 349.106L331.174 348.441ZM252.617 387.047V386.047C218.255 386.047 187.086 366.556 164.606 334.932L163.791 335.512L162.976 336.091C185.724 368.092 217.442 388.047 252.617 388.047V387.047ZM163.791 335.512L163.365 334.607C137.415 346.838 107.159 353.861 74.8428 353.861V354.861V355.861C107.447 355.861 137.995 348.776 164.217 336.416L163.791 335.512ZM74.8428 354.861V353.861C-21.8052 353.861 -99.7578 291.161 -99.7578 214.255H-100.758H-101.758C-101.758 292.658 -22.4721 355.861 74.8428 355.861V354.861ZM-100.758 214.255H-99.7578C-99.7578 137.348 -21.8052 74.6484 74.8428 74.6484V73.6484V72.6484C-22.4721 72.6484 -101.758 135.852 -101.758 214.255H-100.758ZM74.8428 73.6484V74.6484C107.156 74.6485 137.41 81.6695 163.359 93.8987L163.785 92.9941L164.211 92.0896C137.99 79.7318 107.444 72.6485 74.8428 72.6484V73.6484ZM163.785 92.9941L164.6 93.5735C187.081 61.9453 218.252 42.4512 252.617 42.4512V41.4512V40.4512C217.439 40.4512 185.719 60.4098 162.97 92.4148L163.785 92.9941ZM252.617 41.4512V42.4512C282.053 42.4513 309.137 56.7509 330.433 80.7276L331.181 80.0635L331.928 79.3994C310.339 55.0923 282.742 40.4513 252.617 40.4512V41.4512ZM331.181 80.0635L331.82 80.8322C362.122 55.6249 401.138 40.4531 443.718 40.4531V39.4531V38.4531C400.654 38.4531 361.189 53.7991 330.541 79.2947L331.181 80.0635ZM443.718 39.4531V40.4531C498.183 40.4531 546.819 65.2772 578.841 104.179L579.613 103.543L580.385 102.907C547.999 63.5629 498.804 38.4531 443.718 38.4531V39.4531ZM579.613 103.543L579.963 104.48C584.716 102.706 589.608 101.173 594.622 99.9009L594.376 98.9316L594.13 97.9624C589.046 99.2524 584.084 100.807 579.264 102.606L579.613 103.543ZM594.376 98.9316L594.937 99.7595C615.751 85.655 640.662 77.4512 667.435 77.4512V76.4512V75.4512C640.246 75.4512 614.946 83.7841 593.815 98.1038L594.376 98.9316ZM667.435 76.4512V77.4512C684.088 77.4512 700.019 80.6271 714.692 86.4204L715.06 85.4902L715.427 84.5601C700.525 78.6764 684.344 75.4512 667.435 75.4512V76.4512ZM715.06 85.4902L715.87 86.0759C732.238 63.423 753.292 49.9199 776.152 49.9199V48.9199V47.9199C752.441 47.9199 730.851 61.9283 714.249 84.9046L715.06 85.4902ZM776.152 48.9199V49.9199C791.983 49.92 806.934 56.3932 820.074 67.8931L820.732 67.1406L821.391 66.3881C807.963 54.636 792.561 47.92 776.152 47.9199V48.9199ZM820.732 67.1406L821.089 68.075C850.877 56.7187 887.502 50.0137 927.117 50.0137V49.0137V48.0137C887.287 48.0137 850.417 54.7535 820.376 66.2062L820.732 67.1406ZM927.117 49.0137V50.0137C982.284 50.0137 1031.63 63.0136 1064.79 83.4519L1065.32 82.6006L1065.84 81.7493C1032.29 61.0717 982.559 48.0137 927.117 48.0137V49.0137ZM1065.32 82.6006L1065.84 83.4524C1092.48 67.0686 1125.07 57.4277 1160.28 57.4277V56.4277V55.4277C1124.71 55.4277 1091.76 65.1683 1064.79 81.7488L1065.32 82.6006ZM1160.28 56.4277V57.4277C1180.03 57.4277 1198.96 60.463 1216.48 66.0206L1216.78 65.0674L1217.08 64.1142C1199.37 58.4946 1180.24 55.4277 1160.28 55.4277V56.4277ZM1216.78 65.0674L1217.37 65.8714C1239.14 49.7739 1265 40.4531 1292.72 40.4531V39.4531V38.4531C1264.53 38.4531 1238.27 47.9322 1216.19 64.2634L1216.78 65.0674Z" fill="black" style="mix-blend-mode:overlay" mask="url(#path-1-inside-1_6513_18452)"/>
</g>
<defs>
<filter id="filter0_di_6513_18452" x="-139.758" y="0.453125" width="1719.52" height="427.605" filterUnits="userSpaceOnUse" color-interpolation-filters="sRGB">
<feFlood flood-opacity="0" result="BackgroundImageFix"/>
<feColorMatrix in="SourceAlpha" type="matrix" values="0 0 0 0 0 0 0 0 0 0 0 0 0 0 0 0 0 0 127 0" result="hardAlpha"/>
<feOffset/>
<feGaussianBlur stdDeviation="19.5"/>
<feComposite in2="hardAlpha" operator="out"/>
<feColorMatrix type="matrix" values="0 0 0 0 0.533654 0 0 0 0 0.813462 0 0 0 0 1 0 0 0 0.2 0"/>
<feBlend mode="normal" in2="BackgroundImageFix" result="effect1_dropShadow_6513_18452"/>
<feBlend mode="normal" in="SourceGraphic" in2="effect1_dropShadow_6513_18452" result="shape"/>
<feColorMatrix in="SourceAlpha" type="matrix" values="0 0 0 0 0 0 0 0 0 0 0 0 0 0 0 0 0 0 127 0" result="hardAlpha"/>
<feOffset/>
<feGaussianBlur stdDeviation="11"/>
<feComposite in2="hardAlpha" operator="arithmetic" k2="-1" k3="1"/>
<feColorMatrix type="matrix" values="0 0 0 0 0.629808 0 0 0 0 0.888942 0 0 0 0 1 0 0 0 0.5 0"/>
<feBlend mode="normal" in2="shape" result="effect2_innerShadow_6513_18452"/>
</filter>
</defs>
</svg>
